<svg version="1.1" id="Layer_1" xmlns="http://www.w3.org/2000/svg" x="0" y="0" viewBox="0 0 275.3 38.5" xml:space="preserve">
  <style>
    .st0{enable-background:new}.st1{fill:#fff}.st2{fill:none;stroke:#fff;stroke-width:1.0193;stroke-linecap:round;stroke-linejoin:round;stroke-miterlimit:10}
  </style>
  <g class="st0">
    <path class="st1" d="M121.9 6.2h1.5l2.5 4.2.5 1V6.2h1.5v7.5h-1.5l-2.6-4.1-.5-1v5.2h-1.5V6.2h.1z"/>
    <path class="st1" d="M131.2 6.2h1.6l2.6 7.5h-1.6l-.5-1.6h-2.7l-.5 1.6h-1.5l2.6-7.5zM131 11h2l-.7-2.2-.3-1.2-.3 1.2-.7 2.2z"/>
    <path class="st1" d="M134.7 6.2h6v1.3h-2.3v6.2h-1.5V7.5h-2.3V6.2h.1z"/>
    <path class="st1" d="M141.5 6.2h1.5v7.5h-1.5V6.2z"/>
    <path class="st1" d="M143.9 10c0-2.2 1.4-3.9 3.6-3.9s3.6 1.7 3.6 3.9-1.4 3.9-3.6 3.9-3.6-1.7-3.6-3.9zm5.6 0c0-1.5-.7-2.7-2-2.7s-2.1 1.2-2.1 2.7.7 2.7 2.1 2.7 2-1.2 2-2.7z"/>
    <path class="st1" d="M151.9 6.2h1.5l2.5 4.2.5 1V6.2h1.5v7.5h-1.5l-2.6-4.1-.5-1v5.2h-1.5V6.2h.1z"/>
    <path class="st1" d="M161.2 6.2h1.6l2.6 7.5h-1.6l-.5-1.6h-2.7l-.5 1.6h-1.5l2.6-7.5zM161 11h2l-.7-2.2-.3-1.2-.3 1.2-.7 2.2z"/>
    <path class="st1" d="M166.1 6.2h1.5v6.2h3.5v1.3h-5V6.2z"/>
    <path class="st1" d="M173.7 6.2h1.5v7.5h-1.5V6.2z"/>
    <path class="st1" d="M176.4 6.2h1.5l2.5 4.2.5 1V6.2h1.5v7.5h-1.5l-2.6-4.1-.5-1v5.2h-1.5V6.2h.1z"/>
    <path class="st1" d="M183.3 11.4h1.5c.1.9.6 1.3 1.7 1.3.8 0 1.5-.3 1.5-1s-.7-.9-1.9-1.1c-1.3-.3-2.6-.7-2.6-2.2s1.2-2.2 2.9-2.2 2.8.8 2.9 2.3h-1.5c-.1-.8-.7-1.1-1.4-1.1-.8 0-1.4.3-1.4.9s.5.8 1.6 1c1.5.3 2.8.7 2.8 2.3 0 1.5-1.2 2.4-2.9 2.4-2-.1-3.2-1-3.2-2.6z"/>
    <path class="st1" d="M189.6 6.2h6v1.3h-2.3v6.2h-1.5V7.5h-2.2V6.2z"/>
    <path class="st1" d="M196.4 6.2h1.5v7.5h-1.5V6.2z"/>
    <path class="st1" d="M198.7 6.2h6v1.3h-2.3v6.2h-1.5V7.5h-2.3V6.2h.1z"/>
    <path class="st1" d="M205.5 11.3V6.2h1.5v5.1c0 .8.4 1.3 1.4 1.3s1.4-.6 1.4-1.3V6.2h1.5v5.1c0 1.6-1 2.5-2.9 2.5s-2.9-.9-2.9-2.5z"/>
    <path class="st1" d="M212.1 6.2h6v1.3h-2.3v6.2h-1.5V7.5H212V6.2h.1z"/>
    <path class="st1" d="M218.9 6.2h5.5v1.3h-4v1.7h3.5v1.2h-3.5v2h4v1.3h-5.6V6.2h.1z"/>
    <path class="st1" d="M226.8 10c0-2.2 1.4-3.9 3.6-3.9S234 7.8 234 10s-1.4 3.9-3.6 3.9-3.6-1.7-3.6-3.9zm5.7 0c0-1.5-.7-2.7-2-2.7s-2.1 1.2-2.1 2.7.7 2.7 2.1 2.7 2-1.2 2-2.7z"/>
    <path class="st1" d="M234.9 6.2h5.4v1.3h-3.9v1.8h3.3v1.3h-3.3v3.1h-1.5V6.2z"/>
  </g>
  <g class="st0">
    <path class="st1" d="M121.6 21.9h1.5c.1.9.6 1.3 1.7 1.3.8 0 1.5-.3 1.5-1s-.7-.9-1.9-1.1c-1.3-.3-2.6-.7-2.6-2.2s1.2-2.2 2.9-2.2 2.8.8 2.9 2.3h-1.5c-.1-.8-.7-1.1-1.4-1.1-.8 0-1.4.3-1.4.9 0 .6.5.8 1.6 1 1.5.3 2.8.7 2.8 2.3 0 1.5-1.2 2.4-2.9 2.4-2-.1-3.2-1-3.2-2.6z"/>
    <path class="st1" d="M127.9 16.7h6V18h-2.3v6.2h-1.5V18h-2.3v-1.3h.1z"/>
    <path class="st1" d="M135.9 16.7h1.6l2.6 7.5h-1.6l-.5-1.6h-2.7l-.5 1.6h-1.5l2.6-7.5zm-.3 4.8h2l-.7-2.2-.3-1.2-.3 1.2-.7 2.2z"/>
    <path class="st1" d="M140.7 16.7h1.5l2.5 4.2.5 1v-5.2h1.5v7.5h-1.5l-2.6-4.1-.5-1v5.2h-1.5v-7.6h.1z"/>
    <path class="st1" d="M147.9 16.7h2.9c2 0 3.3 1.6 3.3 3.8 0 1.2-.4 2.3-1.2 2.9-.6.5-1.3.7-2.2.7h-2.8v-7.4zm2.7 6.2c1.4 0 2-.9 2-2.4s-.7-2.5-1.9-2.5h-1.2v4.9h1.1z"/>
    <path class="st1" d="M156.6 16.7h1.6l2.6 7.5h-1.6l-.5-1.6H156l-.5 1.6H154l2.6-7.5zm-.2 4.8h2l-.7-2.2-.3-1.2-.3 1.2-.7 2.2z"/>
    <path class="st1" d="M161.5 16.7h3.4c1.4 0 2.4.8 2.4 2.1 0 .9-.4 1.6-1.4 1.8.7.2 1 .6 1.1 1.5.1 1.1.1 1.9.3 2v.1h-1.5c-.2-.1-.2-.9-.3-1.7s-.5-1.3-1.5-1.3h-1.2v3h-1.5v-7.5h.2zM163 20h1.6c.8 0 1.2-.4 1.2-1s-.4-1.1-1.2-1.1h-1.7l.1 2.1z"/>
    <path class="st1" d="M168.3 16.7h2.9c2 0 3.3 1.6 3.3 3.8 0 1.2-.4 2.3-1.2 2.9-.6.5-1.3.7-2.2.7h-2.8v-7.4zm2.7 6.2c1.4 0 2-.9 2-2.4s-.7-2.5-1.9-2.5h-1.2v4.9h1.1z"/>
    <path class="st1" d="M175 21.9h1.5c.1.9.6 1.3 1.7 1.3.8 0 1.5-.3 1.5-1s-.7-.9-1.9-1.1c-1.3-.3-2.6-.7-2.6-2.2s1.2-2.2 2.9-2.2 2.8.8 2.9 2.3h-1.4c-.1-.8-.7-1.1-1.4-1.1-.8 0-1.4.3-1.4.9 0 .6.5.8 1.6 1 1.5.3 2.8.7 2.8 2.3 0 1.5-1.2 2.4-2.9 2.4-2.1-.1-3.2-1-3.3-2.6z"/>
    <path class="st1" d="M185.9 16.7h1.6l2.6 7.5h-1.5l-.5-1.6h-2.7l-.5 1.6h-1.5l2.5-7.5zm-.2 4.8h2l-.7-2.2-.3-1.2-.3 1.2-.7 2.2z"/>
    <path class="st1" d="M190.8 16.7h1.5l2.5 4.2.5 1v-5.2h1.5v7.5h-1.5l-2.6-4.1-.5-1v5.2h-1.5v-7.6h.1z"/>
    <path class="st1" d="M198 16.7h2.9c2 0 3.3 1.6 3.3 3.8 0 1.2-.4 2.3-1.2 2.9-.6.5-1.3.7-2.2.7H198v-7.4zm2.7 6.2c1.4 0 2-.9 2-2.4s-.7-2.5-1.9-2.5h-1.2v4.9h1.1z"/>
    <path class="st1" d="M206.4 16.7h6V18h-2.3v6.2h-1.5V18h-2.3v-1.3h.1z"/>
    <path class="st1" d="M213.2 16.7h5.5V18h-4v1.7h3.5v1.2h-3.5v2h4v1.3h-5.6v-7.5h.1z"/>
    <path class="st1" d="M219.2 20.5c0-2.2 1.4-3.9 3.6-3.9 1.8 0 2.9 1.1 3.1 2.5h-1.5c-.1-.8-.7-1.2-1.6-1.2-1.4 0-2 1.2-2 2.6 0 1.5.8 2.6 2.1 2.6.9 0 1.5-.5 1.6-1.3h1.5c0 .7-.3 1.3-.8 1.8s-1.2.8-2.3.8c-2.2 0-3.7-1.6-3.7-3.9z"/>
    <path class="st1" d="M226.8 16.7h1.5v2.9h3v-2.9h1.5v7.5h-1.5v-3.3h-3v3.3h-1.5v-7.5z"/>
    <path class="st1" d="M233.9 16.7h1.5l2.5 4.2.5 1v-5.2h1.5v7.5h-1.5l-2.6-4.1-.5-1v5.2h-1.5v-7.6h.1z"/>
    <path class="st1" d="M240.8 20.5c0-2.2 1.4-3.9 3.6-3.9s3.6 1.7 3.6 3.9-1.4 3.9-3.6 3.9-3.6-1.7-3.6-3.9zm5.7 0c0-1.5-.7-2.7-2-2.7s-2.1 1.2-2.1 2.7.7 2.7 2.1 2.7 2-1.2 2-2.7z"/>
    <path class="st1" d="M248.8 16.7h1.5v6.2h3.5v1.3h-5v-7.5z"/>
    <path class="st1" d="M254.1 20.5c0-2.2 1.4-3.9 3.6-3.9s3.6 1.7 3.6 3.9-1.4 3.9-3.6 3.9-3.6-1.7-3.6-3.9zm5.7 0c0-1.5-.7-2.7-2-2.7s-2.1 1.2-2.1 2.7.7 2.7 2.1 2.7 2-1.2 2-2.7z"/>
    <path class="st1" d="M267.6 23.2c-.5.9-1.2 1.2-2.1 1.2-1.1 0-2-.4-2.6-1.1-.6-.7-1-1.7-1-2.8 0-1.2.4-2.3 1.2-3.1.6-.6 1.4-.9 2.4-.9 1.9 0 3 1 3.2 2.5h-1.5c-.2-.7-.7-1.2-1.7-1.2-1.4 0-2.1 1.2-2.1 2.7s.8 2.7 2.1 2.7c1.2 0 1.9-.9 1.9-1.7h-1.8v-1.2h3.2v4h-1.2v-1.1z"/>
    <path class="st1" d="m271.3 21.3-2.5-4.6h1.7l1.1 2.2c.2.5.5 1.1.5 1.1s.3-.6.5-1.1l1.1-2.2h1.6l-2.5 4.6v2.9h-1.5v-2.9z"/>
  </g>
  <g class="st0">
    <path class="st1" d="M121.8 32.6v-4.4h.8v4.3c0 1.1.6 1.6 1.7 1.6 1 0 1.6-.5 1.6-1.6v-4.3h.8v4.4c0 1.6-1.1 2.2-2.5 2.2-1.3 0-2.4-.6-2.4-2.2z"/>
    <path class="st1" d="M127.4 33.8h.9v.9h-.9v-.9z"/>
    <path class="st1" d="M128.7 32.5h.8c.1 1.1.8 1.7 2 1.7.9 0 1.5-.4 1.5-1.2 0-.9-.8-1.1-1.9-1.3-1.1-.3-2.1-.6-2.1-1.8 0-1.1.9-1.7 2.2-1.7 1.6 0 2.3.8 2.4 2h-.8c-.1-.9-.7-1.4-1.7-1.4-.9 0-1.4.4-1.4 1 0 .7.7.9 1.7 1.1 1.3.3 2.4.6 2.4 2 0 1.2-1 1.9-2.4 1.9-1.7 0-2.6-1-2.7-2.3z"/>
    <path class="st1" d="M134.5 33.8h.9v.9h-.9v-.9z"/>
    <path class="st1" d="M137.8 28.3h2.3c1.9 0 2.9 1.3 2.9 3.2 0 1.9-1 3.2-2.9 3.2h-2.3v-6.4zM140 34c1.5 0 2.1-1 2.1-2.5s-.5-2.5-2.1-2.5h-1.4v5h1.4z"/>
    <path class="st1" d="M143.9 28.3h4.5v.7h-3.7v2h3.4v.7h-3.4V34h3.8v.7h-4.7l.1-6.4z"/>
    <path class="st1" d="M149.5 28.3h2.7c.7 0 1.2.2 1.5.6.3.3.4.7.4 1.2 0 1.2-.7 1.9-2.1 1.9h-1.8v2.7h-.8v-6.4h.1zm.9 3.1h1.7c.9 0 1.3-.5 1.3-1.2 0-.8-.5-1.2-1.3-1.2h-1.7v2.4z"/>
    <path class="st1" d="M156.3 28.3h.9l2.4 6.4h-.9l-.7-2h-2.6l-.7 2h-.8l2.4-6.4zm-.6 3.8h2.1l-.7-2.2c-.1-.4-.3-.9-.3-.9s-.2.5-.3.9l-.8 2.2z"/>
    <path class="st1" d="M160.3 28.3h3c1.1 0 1.9.7 1.9 1.8 0 .8-.3 1.3-1.1 1.6.7.2.9.7.9 1.6.1 1 .2 1.3.3 1.4h-.9c-.1-.1-.2-.4-.2-1.4-.1-.9-.4-1.3-1.3-1.3h-1.8v2.7h-.8v-6.4zm.8 3h1.9c.9 0 1.4-.5 1.4-1.2 0-.8-.4-1.2-1.3-1.2h-2v2.4z"/>
    <path class="st1" d="M165.7 28.3h5.1v.7h-2.2v5.7h-.8V29h-2.1v-.7z"/>
    <path class="st1" d="M171.6 28.3h1l2.1 5.3 2.1-5.3h1.1v6.4h-.8v-5.3s-.2.5-.3.8l-1.8 4.5h-.6l-1.8-4.5c-.1-.3-.3-.8-.3-.8v5.3h-.7v-6.4z"/>
    <path class="st1" d="M179 28.3h4.5v.7h-3.7v2h3.4v.7h-3.4V34h3.8v.7h-4.7l.1-6.4z"/>
    <path class="st1" d="M184.6 28.3h.9l2.9 4.5c.2.3.5.8.5.8v-5.3h.8v6.4h-.8l-3-4.5c-.2-.3-.5-.8-.5-.8v5.3h-.8v-6.4z"/>
    <path class="st1" d="M190.5 28.3h5.1v.7h-2.1v5.7h-.9V29h-2.1v-.7z"/>
    <path class="st1" d="M197.5 31.5c0-1.9 1.2-3.4 3.2-3.4 1.9 0 3.2 1.4 3.2 3.4 0 1.9-1.2 3.4-3.2 3.4s-3.2-1.5-3.2-3.4zm5.5 0c0-1.5-.8-2.7-2.3-2.7s-2.3 1.1-2.3 2.7c0 1.5.8 2.6 2.3 2.6 1.5 0 2.3-1.1 2.3-2.6z"/>
    <path class="st1" d="M204.8 28.3h4.4v.7h-3.6v2h3v.7h-3v3h-.8v-6.4z"/>
    <path class="st1" d="M211.2 31.5c0-1.9 1.1-3.4 3.1-3.4 1.5 0 2.4.9 2.6 2.1h-.8c-.2-.8-.8-1.4-1.8-1.4-1.4 0-2.2 1.1-2.2 2.7s.9 2.6 2.2 2.6c1.2 0 1.8-.8 1.9-1.8h.8c0 .6-.3 1.4-.8 1.8-.5.4-1.1.7-1.9.7-1.9 0-3.1-1.3-3.1-3.3z"/>
    <path class="st1" d="M217.6 31.5c0-1.9 1.2-3.4 3.2-3.4s3.2 1.4 3.2 3.4c0 1.9-1.2 3.4-3.2 3.4s-3.2-1.5-3.2-3.4zm5.4 0c0-1.5-.8-2.7-2.3-2.7s-2.3 1.1-2.3 2.7c0 1.5.8 2.6 2.3 2.6s2.3-1.1 2.3-2.6z"/>
    <path class="st1" d="M224.8 28.3h1l2.1 5.3 2.1-5.3h1.1v6.4h-.8v-5.3s-.2.5-.3.8l-1.8 4.5h-.6l-1.8-4.5c-.1-.3-.3-.8-.3-.8v5.3h-.7v-6.4z"/>
    <path class="st1" d="M232.3 28.3h1l2.1 5.3 2.1-5.3h1.1v6.4h-.8v-5.3s-.2.5-.3.8l-1.8 4.5h-.6l-1.8-4.5c-.1-.3-.3-.8-.3-.8v5.3h-.7v-6.4z"/>
    <path class="st1" d="M239.8 28.3h4.5v.7h-3.7v2h3.4v.7h-3.4V34h3.8v.7h-4.7v-6.4h.1z"/>
    <path class="st1" d="M245.4 28.3h3c1.1 0 1.9.7 1.9 1.8 0 .8-.3 1.3-1.1 1.6.7.2.9.7.9 1.6.1 1 .2 1.3.3 1.4h-.9c-.1-.1-.2-.4-.2-1.4-.1-.9-.4-1.3-1.3-1.3h-1.8v2.7h-.8v-6.4zm.8 3h1.9c.9 0 1.4-.5 1.4-1.2 0-.8-.4-1.2-1.3-1.2h-2v2.4z"/>
    <path class="st1" d="M251 31.5c0-1.9 1.1-3.4 3.1-3.4 1.5 0 2.4.9 2.6 2.1h-.8c-.2-.8-.8-1.4-1.8-1.4-1.4 0-2.2 1.1-2.2 2.7s.9 2.6 2.2 2.6c1.2 0 1.8-.8 1.9-1.8h.8c0 .6-.3 1.4-.8 1.8-.5.4-1.1.7-1.9.7-1.9 0-3.1-1.3-3.1-3.3z"/>
    <path class="st1" d="M257.6 28.3h4.5v.7h-3.7v2h3.4v.7h-3.4V34h3.8v.7h-4.6v-6.4z"/>
  </g>
  <polyline class="st2" points="113.2,0.5 113.2,5.9 117.9,9.1 113.2,12.2 113.2,38"/>
  <path class="st1" d="M5.9 34.6H0V11.9s0-4.3 4.3-5.7c3.9-1.2 6.5 1.3 6.5 1.3l19.4 21c1 .6 1.4 0 1.4-.6V6.2h6v22.6c0 1.9-1.6 4.3-3.9 5.2-2.3.9-4.8.9-7.8-1.6L7.7 12.6c-.5-.5-1.7-.6-1.8.4v21.6z"/>
  <path class="st1" d="M41.4 6.2h5.9v20.4c0 2.2 1.8 2.2 3.6 2.2h26.4c1.1 0 2.3-1.3 2.3-2.6 0-1.4-1.3-2.7-2.5-2.7H60c-2.9.1-9.1-2.6-9.1-8.4 0-7.1 5.8-8.6 8.5-8.8H108v6H95.8v22.5h-5.9V12.2H60.2c-2.8-.2-4.9 4.6-.2 5.3h18.3c2.8 0 7.3 2.4 7.3 8.3 0 6-3.5 8.8-7.3 8.8h-27c-4.5 0-6.1-1-7.6-2.5-1.5-1.4-1.7-2.2-2.2-5.2l-.1-20.7z"/>
</svg>
